<?xml version="1.0"?>
<svg xmlns="http://www.w3.org/2000/svg" xmlns:xlink="http://www.w3.org/1999/xlink" version="1.1" id="Layer_1" x="0px" y="0px" viewBox="0 0 512 512" style="enable-background:new 0 0 512 512;" xml:space="preserve" width="512px" height="512px" class=""><g><g>
	<polygon points="300.138,317.793 300.138,211.862 211.862,211.862 211.862,317.793 114.759,317.793 256,512    397.241,317.793  " data-original="#4FBA6F" class="active-path" data-old_color="#4FBA6F" fill="#6A1B9A"/>
	<path d="M229.517,176.552h52.966c9.71,0,17.655-7.945,17.655-17.655s-7.945-17.655-17.655-17.655h-52.966   c-9.71,0-17.655,7.945-17.655,17.655S219.807,176.552,229.517,176.552" data-original="#4FBA6F" class="active-path" data-old_color="#4FBA6F" fill="#6A1B9A"/>
	<path d="M229.517,105.931h52.966c9.71,0,17.655-7.945,17.655-17.655s-7.945-17.655-17.655-17.655h-52.966   c-9.71,0-17.655,7.945-17.655,17.655S219.807,105.931,229.517,105.931" data-original="#4FBA6F" class="active-path" data-old_color="#4FBA6F" fill="#6A1B9A"/>
	<path d="M229.517,35.31h52.966c9.71,0,17.655-7.945,17.655-17.655S292.193,0,282.483,0h-52.966   c-9.71,0-17.655,7.945-17.655,17.655S219.807,35.31,229.517,35.31" data-original="#4FBA6F" class="active-path" data-old_color="#4FBA6F" fill="#6A1B9A"/>
</g></g> </svg>
